<svg id="Calque_1" data-name="Calque 1" xmlns="http://www.w3.org/2000/svg" viewBox="0 0 900 430"><defs><style>.cls-1{fill:#fe8415;}.cls-2{fill:#fe8717;}.cls-3{fill:#fd8514;}.cls-4{fill:#fe8515;}.cls-5{fill:#fe9e1b;}.cls-6{fill:#fec932;}.cls-7{fill:#fea623;}.cls-8{fill:#feb512;}.cls-9{fill:#fecd21;}.cls-10{fill:#040303;}.cls-11{fill:#feaf27;}.cls-12{fill:#fda422;}.cls-13{fill:#fda925;}.cls-14{fill:#fd8803;}.cls-15{fill:#fda91b;}.cls-16{fill:#010101;}.cls-17{fill:#fd8d19;}.cls-18{fill:#fdb903;}.cls-19{fill:#fea924;}.cls-20{fill:#030303;}.cls-21{fill:#f9cb40;}.cls-22{fill:#f8c86c;}.cls-23{fill:#f6df9b;}.cls-24{fill:#f7da9c;}</style></defs><path d="M101.73,42.51C162.58,71.07,211.34,112.76,247,169.4,271.18,207.93,286,250,293.45,294.78c6.31,38.17,6.51,76.5,3.38,115-.4,4.88-2.38,5.08-6.16,3.84-6.24-2-8.25-4.67-7.92-11.18a12,12,0,0,0-1.52-6c-3.67-7.43-7.79-14.51-14.56-19.68-1.26-.95-2.73-2.22-3.12-3.62-2.23-8-5.64-15.91-5.71-24.28,0-5.51-1.43-9.76-5.53-13.22a70.71,70.71,0,0,1-11.72-12.84c-2.89-4-3.55-8.26-1-12.71a15.52,15.52,0,0,0,2-8.38c-.24-5.54,1.93-9.05,7.2-11.22,5.11-2.1,7.12-6.08,5-11-4.26-10.12-6.62-20.88-10.92-31a27,27,0,0,0-13.25-14.15c-8.33-4.12-9.18-7.17-5.14-15.27,1.58-3.18,3.24-6.32,4.74-9.54,3.63-7.73-1.12-15.3-9.75-15.21-3.35,0-6.69,1-10,1.53-4,.66-7.38-.28-9.91-3.58-2.73-3.56-4.93-7.92-10.18-8.14-8.24-.35-16.55-.74-23.87,4.21-1.6,1.08-3.15,2.25-4.69,3.43-3.5,2.69-7.35,3.43-11.38,1.6-9.25-4.21-18.16-3.45-27,1.26-5.79,3.09-11.2,2.26-16.13-2a64.26,64.26,0,0,0-20.08-12.4,8.08,8.08,0,0,1-5.15-5.45C79,167.58,73.64,162.91,67.6,159.6c-6.32-3.47-9.39-10-15.09-14-2.59-1.83-1.45-5.74.2-8.51,1.48-2.49,3.32-4.76,4.9-7.2,5.66-8.7,5.46-18.46-.55-26.95-1.88-2.66-1.68-5.5-.72-8.34A17.27,17.27,0,0,1,61,87.86c2.18-2.15,5.23-4,6.29-6.61C69.85,74.82,74.94,70.4,78.81,65a15.71,15.71,0,0,1,6.07-5.39c1.9-.89,3.86-1.65,5.83-2.37C101.05,53.48,101.06,53.49,101.73,42.51Z"/><path d="M162.38,199.78c-4.88,16-9.62,32.13-14.74,48.09-1.28,4-.27,4.5,3.45,4.48,24.88-.14,49.76,0,74.64-.15,3.22,0,5,.65,5.79,4.08a38.08,38.08,0,0,0,9.72,17.09c2.35,2.49,2.64,4.95.94,7.85-2.52,4.32-4.58,9-7.53,13a18.16,18.16,0,0,0-3.13,15.58c1.29,5.82,2.84,11.59,4.59,17.29,1,3.24.26,4.07-3.13,4.06-24.4-.13-48.8-.07-73.19-.07-11,0-22,.15-33-.1-3.4-.07-4.76,1-5.71,4.21-7.86,26.24-16,52.41-23.8,78.67-1.1,3.71-2.63,5-6.63,4.93-26-.22-52-.17-78,0-3.73,0-4.53-.51-3.27-4.43Q42.79,310.9,75.89,207.42c2.27-7.07,4.62-14.11,6.7-21.24.83-2.84,1.9-3.07,4.37-1.73a46.05,46.05,0,0,1,14.83,12.27c5,6.43,11.1,7.84,18.47,5.2,3-1.09,6.1-2.13,9-3.45a19,19,0,0,1,16-.3c5.51,2.48,10.74,4.29,16.58.44Z"/><path class="cls-1" d="M752.67,231.68c3.84-7.76,9.45-14.38,14.14-21.6q20-30.79,40.47-61.27c5.82-8.65,11.81-18.16,22.89-20.06a136.87,136.87,0,0,1,52.32.64c4.93,1.07,7.6,5.13,8.15,10.26,1.43,13.25-.34,26.4-1.38,39.57-1.49,18.81-2.92,37.63-4.61,56.43-1.11,12.36-2.63,24.69-4,37-1.55,1.23-3.08.38-4.57-.09q-30-9.41-60.12-18.31c-19.48-5.72-38.78-12-58.2-17.9C755.49,235.69,752.52,235.26,752.67,231.68Z"/><path class="cls-2" d="M332.23,113.62c3,8,3.82,16.56,5.26,24.89,3,17.46,4.92,35.09,6.34,52.76,4.62,27.15,4.07,54.3,0,81.45-.12.65-.24,1.29-.35,1.94-3.1.82-2.85-2-3.38-3.45-4.21-11.87-8.6-23.63-14.42-34.86C313.1,212,296.14,191.42,274,175.19a46.9,46.9,0,0,0-4.28-3.13c-4.74-8.46-9.39-17-14.24-25.36a371.41,371.41,0,0,0-35.25-50.1,6.45,6.45,0,0,1-.63-1.26c-1.31-2.14-.2-3.18,1.69-4.09,4.92-2.36,7.08-2.32,13,.6.74-4.27,4.16-6.12,7.62-6.71,4.18-.73,7.53-2.8,10.92-4.85,4.07-2.45,8.2-3.65,12.91-2.85A9,9,0,0,0,270.5,77c5.7-2.15,6.39-4.79,2.66-9.55-2.4-3.06-5.15-5.78-7.81-8.6-1.36-1.44-4.2-3.13-2.78-5,1.67-2.17,4.19.15,6,1.19,6.73,3.87,12.91,8.59,19.09,13.26,12.51,9.45,24,20.1,35.27,31,2.42,2.33,4.26,5.19,7,7.29C332.13,108.19,330.19,111.64,332.23,113.62Z"/><path class="cls-3" d="M477.61,230.1c-1.45,10-4.47,19.74-6.61,29.63-1.36,6.28-2.79,12.58-4.63,18.73-1.1,3.68.31,4,3.37,4q43.14-.1,86.28,0h6.75c-5.24,6.78-9.88,13-14.71,19-10,12.49-20.16,24.84-30.1,37.37a19.29,19.29,0,0,1-15.46,7.59c-33.11.48-66.23.66-99.35,1.09-3.1,0-4.37-1.18-4.95-3.92a26.8,26.8,0,0,0-1.51-5.06c-1-2.35-.58-3.66,1.31-5.77a101.41,101.41,0,0,1,9-9.5c2.07-1.79,4.09-3.19,6.78-1.12,1.64,1.27,3.11.74,4.11-.82,1.73-2.71,4.53-4.07,7.1-5.6,4.31-2.57,6.58-6.12,5.94-11.1a78.2,78.2,0,0,1,.39-20.73c.54-4-1-7.22-4-9.83a9.77,9.77,0,0,1-3.52-9c.28-2.7.42-5.7-.47-8.16-2.23-6.12-1.24-11.39,2.7-16.34.49-.62.67-1.75,1.26-2,10.65-4.31,13.32-17,23.2-22.08a3.37,3.37,0,0,1,4.05-.25c5.69,3.6,12.32,4.44,18.58,6.37C478.27,224.18,478.4,224.22,477.61,230.1Z"/><path class="cls-4" d="M498.87,146.72c-5-3.06-9.18-2.89-14,1.29a9.38,9.38,0,0,1-8.33,2.5,10.69,10.69,0,0,0-7.41,1.37c-3.18,1.85-7.28.26-10.33,1.34-6.89,2.43-9.35,1.28-8.69-6.39.23-2.61-2.78-4.73-5.39-6.27-3.95-2.34-7.81-4.89-11-8.7,4.11-2.86,8.51-3.55,13-3.63,69.79-1.26,139.59-.66,209.39-.62,1.19,0,2.81-.72,3.49.76s-.82,2.24-1.58,3.23c-10.71,14-21,28.24-32.84,41.31-6.94,7.67-15.14,12.49-25.55,13.29-13.09,1.76-25.14-2.58-37.26-6.44-17.49-5.57-35.24-10.32-52.62-16.26-3.13-1.07-7.38.41-9.34-2.86-1.66-2.79.32-6.28,0-9.5C500.21,149.5,500.14,147.94,498.87,146.72Z"/><path class="cls-4" d="M646.13,199.9c12.16-17,25.38-33.11,38.06-49.68,4.86-6.35,9.19-13.17,16.15-17.64,5.13-3.31,10.61-5.46,16.74-5.39,10.64.13,21.32-.76,31.92,1,9.82,1.62,13.26,5.64,12.42,16.43-.67,8.65-2.35,17.23-3.68,25.83-3.18,20.39-6.07,40.81-6.56,61.48-2,2-4.22,1.2-6.34.54-31.55-9.81-63.26-19.09-94.73-29.17C648.38,202.73,646.16,202.54,646.13,199.9Z"/><path class="cls-5" d="M332.23,113.62c-.29-.13-.73-.19-.84-.42C324.52,99.31,311.74,91,300.87,80.9c-9.43-8.78-19.95-16.12-30.47-23.46a31.33,31.33,0,0,0-7.27-3.51c3.15,4.91,7.76,8.39,11.19,13,4.15,5.54,2.47,10.42-4.66,11.8a7.42,7.42,0,0,1-2.89.07c-7.27-1.64-12.89,1.66-18.25,5.92-2.38,1.89-5.86,0-8.15,2.19-1.67,1.58-6.52,1.31-3.53,5.79.15.22-.17,1-.48,1.2-1.22.77-2.14,0-2.94-.83-4.22-4.22-8.62-1.76-12.94-.29-1,.35-.76,1.65-.87,2.59-10-10.56-19.6-21.57-30.19-31.6C172.81,48,154.84,33.92,136.33,20.51c-1.19-2.32-1.57-4.22,2.1-4,10.36,7,20.72,3.76,30.75-.54,9.09-3.9,18.07-5,28.06-4.56,9.29.43,19.28,1,28.22-3.58,3.06-1.57,5.4,0,7.38,1.84,2.21,2.05,2.42,5.16,3,8,.7,3.24-.13,5.72-3.52,6.94-1.14.41-1.14,1.48-1,2.45.22,1.23,1.29,1.44,2.24,1.33,3.49-.41,5.61,1.28,7.52,4,1.75,2.52,5,2.62,7.7,3.37a7,7,0,0,0,2.89.1c8.1-1.18,14.44.56,16.47,9.68,15,8.84,29.16,19,43.29,29.22.74.53,1.53,1,2.55,1.61-1-2.6-3.61-5.39-1.28-6.88,2.63-1.67,4.95,1.3,6.27,3.62,1.06,1.86,2.9,2.46,4.29,3.72C327.33,88.87,330.67,101,332.23,113.62Z"/><path class="cls-4" d="M667.74,285.52c-11,16-22.38,31.87-33,48.18-6,9.28-14.06,13.6-24.83,13.62l-76,.11a23.9,23.9,0,0,1-2.66-.38c6.24-8.35,11.93-16.19,17.87-23.83q21.36-27.48,42.93-54.81a14,14,0,0,1,1.74-1.6c3-1.85,6.26-1.49,9.36-.56,18.21,5.46,36.57,10.45,54.45,16.95,2.32.84,4.56,1.43,7.07.82C665.88,283.73,667.66,283.07,667.74,285.52Z"/><path class="cls-6" d="M685,265c-2.36-.64-3.2.75-4.13,2.63-.79,1.59-2.32,2.8-3.52,4.18-5.61-5.92-13.71-6-20.69-8.61-13.44-5-27.43-8.4-41.14-12.66-2.27-.7-4.73-1.14-6.34-3.21a356.9,356.9,0,0,1,23.39-30.17c27.83,9.14,56,17.14,84,25.93,22.61,7.11,45.4,13.66,68.06,20.58,3.12,1,7,.1,9.24,3.38-4,8.24-10,15.23-14.78,23-1.45,2.38-2.33,5.25-4.74,7-5.8.38-10.94-2.25-16.26-3.78-21.32-6.13-42.49-12.78-63.59-19.61-3.58-1.16-6.15,1.06-9.26.95l0-1.83C685.31,270.2,688.31,267.54,685,265Z"/><path class="cls-7" d="M793.81,267.07c-21-4.71-41.31-11.92-62-17.83-20.22-5.78-40.17-12.5-60.3-18.61-9.17-2.79-18.28-5.78-27.72-7.8-3.69-.79-8.4-2-11.27-5.64a131.05,131.05,0,0,1,13.59-17.29c7.47,3.74,15.55,5.67,23.49,8.07,18.1,5.48,36.14,11.18,54.22,16.76,7.51,2.33,15,4.65,22.57,6.84a22.78,22.78,0,0,0,4.77.34l1.49-.23c.89,2,2.7,2.71,4.59,3.22,17.39,4.67,34.43,10.48,51.65,15.69,18.42,5.57,37.07,10.49,55.21,17,5.42,1.95,11,3.39,16.56,5.07,0,.35,0,.69,0,1a13.44,13.44,0,0,0-1.31,6.07c0,4.49-.7,5-5.16,4-5.64-1.36-11.14-3.28-16.66-5-14.76-4.7-29.68-8.84-44.46-13.43-4.86-1.51-6.22-3.29-6-8.27-1.77-2.93-3.62-3.15-5.73-.28C798.84,260.19,797,264.12,793.81,267.07Z"/><path class="cls-4" d="M762.63,318.34c-5.35,9.78-12.19,18.22-22,23.91-10.49,6.11-22,7.2-33.68,5.92a153.46,153.46,0,0,0-30.89-.75c-4.21.38-4.57-1.06-3.71-5,2.58-11.77,4.57-23.68,6.77-35.53.8-4.27,1.55-8.55,2.32-12.82,1-2.76,2.37-3.8,5.74-2.84,21.32,6.12,42.47,12.82,63.71,19.2,3.35,1,6.21,3.2,9.92,3.52C763.14,314.15,763.84,316.12,762.63,318.34Z"/><path class="cls-8" d="M340,303.92c.1,11.66-2.9,22.9-4.95,34.24-1.87,10.38-4.31,20.68-7,30.89-3.49,13.42-7.57,26.67-12,39.83-1.63,4.89-5.64,2.92-8.78,3.74-4,1-4.86-.6-4.2-4.08,1.29-3.15.63-6.64,1.75-9.81,2.23-18.59,4.05-37.31,3.34-56-.72-19.11-.8-38.38-4.81-57.28-.6-2.8-.38-5.78-.54-8.68-1-2.56-.52-5.43-1.72-7.94l-.19-1.79a7,7,0,0,1-.46-1.85c-.32-1.31-.51-2.68.91-3.39s2.52.16,3.38,1.13c1.92,2.16,3.92,4.25,5.77,6.46,8.47,10.11,18.24,18.94,27.56,28.22C340,299.56,341.14,301.29,340,303.92Z"/><path class="cls-9" d="M340,303.92c-.34-1.49-.08-2.95-1.5-4.33-11.9-11.46-24-22.73-34.28-35.74-.57-.72-1.35-1.86-2.31-1.22-1.6,1.05-.43,3-.94,4.45-3-3.77-2.26-8.61-3.2-12.86a363.89,363.89,0,0,0-27.32-78.88,14.49,14.49,0,0,1-.72-3.28c5.9.71,9.33,5.43,13.42,8.77,22.54,18.45,38.46,41.93,50.16,68.35,3.36,7.59,5.74,15.62,8.48,23.48.34,1,.62,1.78,1.72,2C342.65,284.45,342.69,294.35,340,303.92Z"/><path class="cls-10" d="M490.15,155.51c-4.09,3.89-8.47,5.59-13.83,3.7a1.84,1.84,0,0,0-1.42,0c-6,4-13.18,2.12-19.56,4.22-7.51,2.47-14.87-3.07-14.15-10.93.3-3.33-.91-4.38-3.55-5.71-6.75-3.41-12-9.08-18.82-12.57-3.41-1.74-4.2-6-5-9.63a8.87,8.87,0,0,0-4.41-6c-5.2-3.15-8.38-7.14-6.8-14,1-4.24-2.06-7.69-4.91-10.57-3.36-3.4-6.38-6.92-7.06-11.8-.39-2.74-3.15-3-4.38-4.89-3.06-4.6-5.34-9.73-10-13.26-1.55-1.18-2.13-3.56-1.95-5.79.34-4.52,4-6.37,7.85-4,1.06.67,1.8,1.89,3.24,1.9,1.67-5.94-.73-8.92-6.75-8.42-.48,0-1,.3-1.43.14-9.15-3.69-17.89.11-26.75,1.45-2.43.36-3.54-.64-4-3-.38-1.74-.19-2.49,1.78-2.09,4.7,1,8.93-.76,13.11-2.5,3.46-1.44,6.8-1.87,10.16.2,2.38,1.47,4.95,1,7.55.87,7.82-.52,12.93,4.92,12,12.67-.65,5.59-3.77,7.29-8.76,4.77-.8-.4-1.54-1-2.55-1.6-.07.83-.28,1.57-.11,1.67,6.46,3.85,7.34,12.29,13.52,16.34,1.12.73,2.27,1.76,2.24,3-.15,5.35,3.56,8.36,6.63,11.87,3.82,4.37,6.6,9.18,5.07,15.43-.79,3.22,1.2,5.42,3.71,6.67,4.8,2.4,7.21,6.3,8.19,11.3.75,3.84,3,6.11,6.56,7.71,6.94,3.11,11.81,9.39,18.83,12.54,2.29,1,2.24,3.61,1.89,6-.9,6.25,2.79,9.37,8.54,7.15a15.63,15.63,0,0,1,8-1.07,9.24,9.24,0,0,0,6.12-1,12.66,12.66,0,0,1,10.66-1.46c2,.61,3.78-.25,5.29-1.67a26.43,26.43,0,0,1,3.65-3.15c1.95-1.24,4.26-2.15,6.39-.85s.8,3.58.61,5.36c-1.13,10.54-4.36,20.12-12.7,27.4a24.85,24.85,0,0,0-5.74,8.29,22.81,22.81,0,0,1-12.75,11.38c-10.91,4.23-18.36,12.92-27.13,19.91-1.94,1.55-2.79,3.93-4,6-1.73,3-3.79,5.65-7.63,6.08a4,4,0,0,0-1.79.65c-3.3,2.33-7.34,15.37-5.56,19.07,2.07,4.32,2,8.78,1.74,13.28-.19,4,.83,7.3,4.07,9.82s3.91,5.53,3.08,9.47a37.32,37.32,0,0,0-.28,16.33c.91,3.9-.3,7-3.81,9.09-2.07,1.24-4.06,3-6.31,3.5-6.79,1.5-12.34,5.09-17.66,9.26-.77.6-1.83,1.05-1.89,2.05-.2,3.14-1.79,3.75-4.79,3.83s-4.28,2.22-2.09,5c2.59,3.29,3.7,7.16,4.58,11.09,1.47,6.58-1.86,11.53-8.4,12.81-9.65,1.9-10.32,2.84-9,12.49.9,6.63-.36,9.56-6.42,11.8a30.36,30.36,0,0,0-14.76,11.95c-3.61,5.28-8.34,8.93-14.78,10.1a22.16,22.16,0,0,0-9.17,4.22,14.37,14.37,0,0,1-11.14,2.68c5.94-4.76,11.29-9.67,18.49-11.15a20.64,20.64,0,0,0,13.54-9.26c3.89-5.77,8.84-10.29,15.61-12.4,3.66-1.14,4.62-3.52,4-7.05a32.41,32.41,0,0,1-.62-7.2c.3-5,3.59-8.36,9.21-9.87,9.74-2.61,11.38-6.54,6.54-15.6s-4.62-8.71,3.32-14.74a86.89,86.89,0,0,0,7.64-6.35c4.19-4,9-6,14.37-7.45,2.42-.68,4.59-2.3,6.82-3.58a3.77,3.77,0,0,0,2-4.54c-1.82-5.78-.85-11.51.15-17.21.47-2.67,0-4.6-2.09-6.4-4.27-3.65-5.61-8.57-5.16-14a22.63,22.63,0,0,0-1.54-10.89c-2.23-5.32-1.92-10.4,2.12-14.84a11.49,11.49,0,0,0,2.29-4.74c.89-3,2.7-5.39,5.83-5.81,2.85-.37,4.29-1.9,5.39-4.2,2-4.17,5.61-6.88,8.66-10.18,8.21-8.87,18.62-14.2,28.86-19.94a12.27,12.27,0,0,0,5.43-5.42c2.83-6.34,7.44-11.29,12.17-16.16S489,161.85,490.15,155.51Z"/><path class="cls-6" d="M878.74,291.17,875,326c-3.18,1.68-6.3.72-9.31-.4-19.7-7.3-40-12.73-60.18-18.28-1.4-.38-2.87-.55-4-1.66,1.08-11,1.94-22.07,3.81-33,2.75-1.82,5.37-.27,7.84.56,18.61,6.27,37.51,11.61,56.24,17.49C872.6,291.76,875.58,292.2,878.74,291.17Z"/><path class="cls-11" d="M498.87,146.72c3,.59,1.76,3,1.9,4.71.2,2.24,0,4.51.05,6.77,0,1.31,0,2.86,1.78,2.9,9.73.24,18.21,5.06,27.32,7.54,17,4.64,33.89,10,50.76,15.18,6.22,1.92,12.72.87,18.94,2.38-1.6,1.48-3.6,1.12-5.5,1.12-30.12,0-60.24.15-90.37,0-14.67-.08-18.05,7.1-20.35,18.08-1.73,8.28-2.93,16.69-5.79,24.71.3-3.71-.93-5.23-5.05-6.33-6.52-1.76-13.73-2.15-19.24-7-.59-.52-1.87-.23-2.83-.32.73-2.11,2.43-3.23,4.26-4.24,4.32-2.4,8.47-5.22,13-7.15,6.1-2.59,9.81-7.5,12.91-12.74a64.71,64.71,0,0,1,8.49-11.4C498.2,171.23,500.32,159.47,498.87,146.72Z"/><path class="cls-7" d="M762.63,318.34c-.18-2.23-.31-3.44-3.62-3.45-4.86,0-9-3.55-13.79-4.92-18.07-5.2-36-10.76-54-16.32-2-.61-4.14-.19-6-1.65-2.53-2-1.85,2.6-3.81,2.08l3.72-19.45c3.22-3,6.52-3.21,10.86-1.83,23.39,7.42,46.69,15.14,70.42,21.42,2.67.71,5.22,1.89,7.83,2.85-3.29,6.36-6.56,12.73-9.89,19.07A14.11,14.11,0,0,1,762.63,318.34Z"/><path class="cls-12" d="M609.15,247.35c14.57,4.39,29.14,8.75,43.69,13.19q10.06,3.06,20,6.4c2.26.76,4.59,1.79,4.46,4.89a78.25,78.25,0,0,1-9.58,13.69c-2.51-2.47-4.6,1.74-7.56.24-4.39-2.22-9.4-3.19-14.06-4.91-14.48-5.37-29.52-8.88-44.2-13.59-2.51-.81-5.43-.33-8.16-.45A149.55,149.55,0,0,1,609.15,247.35Z"/><path class="cls-13" d="M801.53,305.7c5.53-.29,10.63,1.75,15.75,3.26q22.79,6.75,45.34,14.21A63.31,63.31,0,0,0,875,326c.73,5-1.46,9.57-1.91,14.4a2.21,2.21,0,0,1-2.6,2.16c-5,2.38-9.9.17-14.36-1.25-15.76-5-31.82-9.1-47.31-15-3-1.15-6.33-.81-9.22-2.27C799.4,317.89,801.29,311.88,801.53,305.7Z"/><path class="cls-14" d="M366.86,153.67c0,14.69,0,29.38.11,44.07a208.89,208.89,0,0,1-2,27.49c-4.12,1.05-8.26.2-12.32-.25-2.79-.31-3.37-3.18-3.44-5.71-.17-5.49-.08-11-.06-16.48a31.28,31.28,0,0,0-.67-7.22c.17-15.95,0-31.91.08-47.87,0-5.43.41-5.79,5.71-5.87,1.45,0,2.9,0,4.35,0,7.21,0,7.62.41,7.86,7.54C366.56,150.81,366.26,152.28,366.86,153.67Z"/><path class="cls-15" d="M323.32,76.87c-2.51.17-4.66.21-5.2-3.26-.35-2.2-3.06-2.6-5.05-4.39-.29,3.8,2.31,6,3,9.31-4.88-1.77-8.64-4.93-12.53-7.63C296.88,66.27,291,60.34,284,56.41c-3.95-2.22-8.1-4.26-12-6.68-1.65-1-3.2-2.17-3.83-4.15,6,.4,12-.32,18.06,2,5.23,2,7.61-.33,7.16-5.9s3.84-6.22,7.48-7.62c5.62-2.41,7.2-2.05,9.69,2.19C315.17,49.68,320.43,62.9,323.32,76.87Z"/><path class="cls-16" d="M586.27,374.52c8.08.08,12.88,3.13,14.79,9.13.61,1.89,1.48,4-1.7,4.23-1.94.16-4.62,2.24-5-2.17s-3.4-6.81-7.79-7.13c-2.34-.17-4.51.47-5.43,3.06-.82,2.3.08,4.06,1.83,5.53,3,2.51,6.7,3.78,10.06,5.64,9.25,5.12,12.47,11.86,10,20-2.41,7.83-8.81,9.61-15.53,9.84-9.67.32-17-2.18-19.38-10.06-1.11-3.64-.8-6,3.85-6.61,2.62-.35,2.82.15,3,2.45.32,5.12,3.46,8.18,8.25,9.45,2.66.7,5.37.24,6.64-2.49s.33-5.09-2.22-6.63-5-2.84-7.55-4.26a26.84,26.84,0,0,1-8-6.1c-3.49-4.32-4.63-9.26-2.36-14.46,2.65-6.09,8-8.49,14.2-9.31C584.8,374.54,585.77,374.55,586.27,374.52Z"/><path class="cls-17" d="M799.58,324.12c3-.81,5.73-.3,8.76.75,12.6,4.39,25.37,8.3,38.17,12.1,6.7,2,13.44,3.89,20.16,5.84,1.15.33,2.52-.12,3.8-.21-1.6,4.65-5.8,4.87-9.49,4.9-20.12.13-40.23-.08-60.35,0-3,0-3.55-1.23-3.26-3.75C798.14,337.21,798.85,330.66,799.58,324.12Z"/><path class="cls-18" d="M349.83,196.18c1.48,7.11.43,14.3.68,21.44.22,6.62.71,7.32,7.29,5.83,3-.67,4.55,2.33,7.21,1.78.36,10.85-1.75,21.45-3.27,32.11-1,7-1.76,14-2.62,21.06-1.57,2.43-.34,5.46-1.73,7.93q-1,5.78-2.11,11.55c-1.16,2.5-.67,5.37-1.74,7.89l-2.13,11.43c-.49.58-.19,1.71-1.21,1.88s-1.27-.81-1.43-1.52a17.15,17.15,0,0,1-.18-3.86c0-11.62.4-23.27-.1-34.87-.69-16.14-.05-32.24.13-48.36.1-8.88-.67-17.73-.6-26.6C348,201.21,347.4,198.31,349.83,196.18Z"/><path d="M679.09,361.26c0,4.29.11,8,0,11.71-.09,2.36.4,3.65,3.14,3.36,1.64-.17,3.54-.63,3.62,2.36.08,3.33-2.08,2.73-3.85,2.57-2.42-.21-3,.76-2.92,3,.11,9.35,0,18.72.08,28.08,0,2.28-.45,5.57,3.62,2.55.6-.45,2.42-.07,3.07.56,1,1-.17,2-.79,2.86-2.41,3.31-8.6,4.89-13.81,3.39-4.36-1.26-6.78-4.22-6.83-8.84q-.14-14-.14-28.07c0-2.1.06-3.95-2.93-3.51-1.67.25-2.33-.59-2.18-2.25.11-1.26-.22-2.93,1.75-2.71,3.54.41,3.62-1.8,3.3-4.18-.43-3.2.6-4.94,3.88-6C671.67,365.06,675,363.12,679.09,361.26Z"/><path d="M763.61,392.44c.59-2.76,1.14-4.78,1.41-6.83.17-1.27,0-2.74-1.57-3.14s-2,1.11-2.39,2a26.69,26.69,0,0,0-2.14,11.27c0,7.41-.2,14.83.07,22.24.12,3.34-1.06,4-4.11,3.95-10.72-.05-10.72.07-10.72-10.74,0-10.48.13-21-.08-31.43-.06-3.22.51-4.8,4.09-4.28a12.49,12.49,0,0,0,5.28-.22c4.8-1.48,6.5.13,5,6.2,4.39-4.8,8-9.58,14.09-5.31,3,2.09,4.13,9.9,1.39,14.43C771.7,394.3,767.3,391.12,763.61,392.44Z"/><path class="cls-16" d="M397.25,375.77c5.12-.07,10.65-1.65,14.57.2,4.11,1.94,3.32,8.34,4.8,12.75,1.82,5.46,3.28,11,5.2,17.62,2.65-9.12,5-17.22,7.36-25.33.41-1.39.77-2.8,1.26-4.16.8-2.19,2.76-1.5,4.14-1.19,1.89.41.41,2,.21,2.68-4,13.68-8.34,27.28-12.28,41-.9,3.16-3,2.62-4.84,2.39-2.39-.29-5.67,1.82-6.93-2.26C406.28,404.91,401.77,390.38,397.25,375.77Z"/><path class="cls-19" d="M878.74,291.17c-1.8,2.5-3.84,2.78-6.9,1.81-16.92-5.35-34-10.26-50.91-15.61-5.18-1.63-10.15-3.91-15.59-4.66A51.52,51.52,0,0,1,807.09,257c.47,7.36,7,7.11,11.55,8.58,17.73,5.69,35.61,10.9,53.43,16.28,6.37,1.93,6.41,1.92,6.83-4.47.1-1.53.29-2.88,1.77-3.69Q879.71,282.45,878.74,291.17Z"/><path d="M507.71,398c0,6.92,0,13.84,0,20.76,0,2.15-.41,3-2.88,3.17-11.81.6-11.81.69-11.81-11.08,0-10.63.09-21.25-.06-31.88,0-2.66.63-3.88,3.43-3.46.78.12,1.62-.14,2.4,0,2.95.48,6.66-2.42,8.51,0,1.4,1.85.36,5.57.37,8.46C507.73,388.62,507.71,393.29,507.71,398Z"/><path class="cls-20" d="M500.61,358c4.59,0,7.06,2.17,6.92,6s-2.64,5.69-7.34,5.69c-4,0-6.46-1.59-6.49-5.89C493.67,359.66,495.7,358,500.61,358Z"/><path class="cls-21" d="M138.43,16.53c-2.49.38-2.13,2.27-2.1,4-2.93-.46-4.35-3.47-7.16-4.21-.48-.13-1-1.31-.94-2,0-1.18,1.14-1.33,2.1-1.41C133.69,12.64,136.55,13.49,138.43,16.53Z"/><path class="cls-22" d="M310.59,36.23c-2.51-3.93-6.12-3-9.69-2.19C305.26,30.41,309.25,31.31,310.59,36.23Z"/><path class="cls-23" d="M304.88,398.73c0,3.37.81,6.89-1.75,9.81C302.87,405.12,302.78,401.73,304.88,398.73Z"/><path class="cls-9" d="M301.15,268.87c2.41,2.25,1.93,5.13,1.72,7.94C301,274.44,301.06,271.66,301.15,268.87Z"/><path class="cls-24" d="M685,265c3.94,2.5,1.59,5.15.18,7.78C684.24,270.23,687,267.57,685,265Z"/><path d="M874.69,418.77c-.43-1-.14-2.85-2.17-2.59-3.48.46-3.52-1.93-3.53-4.3q0-13.06,0-26.13c0-3.39-.77-6.33-3.82-8.35-5.85-3.88-21.1-3.79-27,.1-3.83,2.53-4.49,6.24-3.75,10.2.68,3.6,4.29,1.52,7.18,3.57-.56-2.61-.94-3.84-1.08-5.1-.49-4.5,2.59-7.71,7.25-7.64,4.22.06,6.46,2.81,6.24,7.38-.19,3.9-3.11,5.41-5.9,7-3.63,2-7.88,2.73-11.26,5.32a14.53,14.53,0,0,0-5.17,15.51c1.4,5.5,4.64,8.29,11.1,9a13.14,13.14,0,0,0,10.62-3.61c.61-.57,1-2.28,2.41-.63,5,5.7,11.07,3.58,17,2.31C873.67,420.59,875.43,420.5,874.69,418.77Zm-20.91-8.52c-.07,2.6-.46,5.54-3.72,5.88-4,.41-3.51-3.35-3.84-5.5-1-6.49.68-12.1,7.6-15.73C853.82,400.31,853.92,405.28,853.78,410.25Z"/></svg>